# xmcd
#
# Track frame offsets: 
#        150
#        16870
#        37433
#        63381
#        92077
#        116356
#        137542
#        162820
#        181675
#        202277
#        230174
#
# Disc length: 3335 seconds
#
# Revision: 0
# Processed by: cddbd v1.5.2PL0 Copyright (c) Steve Scherf et al.
# Submitted via: ExactAudioCopyFreeDBPlugin 1.0
#
DISCID=950d050b
DTITLE=Joe Henry - Thrum
DYEAR=2017
DGENRE=Blues
TTITLE0=Climb
TTITLE1=Believer
TTITLE2=The Dark is Light enough
TTITLE3=Blood of the forgottenSong
TTITLE4=The World of this Room
TTITLE5=The glorious Dead
TTITLE6=Hungry
TTITLE7=Quicksilver
TTITLE8=River Floor
TTITLE9=Now and Never
TTITLE10=Keep us in Song
EXTD=
EXTT0=
EXTT1=
EXTT2=
EXTT3=
EXTT4=
EXTT5=
EXTT6=
EXTT7=
EXTT8=
EXTT9=
EXTT10=
PLAYORDER=
